# AST/ASF file generated using VICON BodyLanguage
# -----------------------------------------------
:version 1.10
:name VICON
:units
  mass 1.0
  length 0.45
  angle deg
:documentation
   .ast/.asf automatically generated from VICON data using
   VICON BodyBuilder and BodyLanguage model FoxedUp or BRILLIANT.MOD
:root
   order TX TY TZ RX RY RZ
   axis XYZ
   position 0 0 0  
   orientation 0 0 0 
:bonedata
  begin
     id 1 
     name lhipjoint
     direction 0.576517 -0.752066 0.319413 
     length 2.45433 
     axis 0 0 0  XYZ
  end
  begin
     id 2 
     name lfemur
     direction 0.34202 -0.939693 0  
     length 7.54459  
     axis 0 0 20  XYZ
    dof rx ry rz
    limits (-160.0 20.0)
           (-70.0 70.0)
           (-60.0 70.0)
  end
  begin
     id 3 
     name ltibia
     direction 0.34202 -0.939693 0   
     length 7.73986   
     axis 0 0 20   XYZ
    dof rx
    limits (-10.0 170.0)
  end
  begin
     id 4 
     name lfoot
     direction 0.090693 -0.249177 0.964202   
     length 2.28437   
     axis -90 7.62852e-016 20   XYZ
    dof rx rz
    limits (-45.0 90.0)
           (-70.0 20.0)
  end
  begin
     id 5 
     name ltoes
     direction 1.5356e-011 -4.21928e-011 1   
     length 1.14243   
     axis -90 7.62852e-016 20   XYZ
    dof rx
    limits (-90.0 20.0)
  end
  begin
     id 6 
     name rhipjoint
     direction -0.573937 -0.753736 0.320122   
     length 2.44889  
     axis 0 0 0  XYZ 
  end
  begin
     id 7 
     name rfemur
     direction -0.34202 -0.939693 0   
     length 7.50166   
     axis 0 0 -20   XYZ
    dof rx ry rz
    limits (-160.0 20.0)
           (-70.0 70.0)
           (-70.0 60.0)
  end
  begin
     id 8 
     name rtibia
     direction -0.34202 -0.939693 0   
     length 7.54266   
     axis 0 0 -20   XYZ
    dof rx
    limits (-10.0 170.0)
 end
 begin
     id 9 
     name rfoot
     direction -0.114017 -0.31326 0.942798   
     length 2.34212  
     axis -90 -7.62852e-016 -20   XYZ
    dof rx rz
    limits (-45.0 90.0)
           (-20.0 70.0)
  end
  begin
     id 10 
     name rtoes
     direction -1.53557e-011 -4.21867e-011 1   
     length 1.16246   
     axis -90 -7.62852e-016 -20   XYZ
    dof rx
    limits (-90.0 20.0)
  end
  begin
     id 11 
     name lowerback
     direction -0.0228371 0.999155 -0.034167   
     length 2.0537   
     axis 0 0 0   XYZ
    dof rx ry rz
    limits (-20.0 45.0)
           (-30.0 30.0)
           (-30.0 30.0)
  end
  begin
     id 12 
     name upperback
     direction 0.0198981 0.999794 0.00389455   
     length 2.05302   
     axis 0 0 0   XYZ
    dof rx ry rz
    limits (-20.0 45.0)
           (-30.0 30.0)
           (-30.0 30.0)
  end
  begin
     id 13 
     name thorax
     direction 0.0304566 0.99935 0.0192987   
     length 2.05315   
     axis 0 0 0   XYZ
    dof rx ry rz
    limits (-20.0 45.0)
           (-30.0 30.0)
           (-30.0 30.0)
  end
  begin
     id 14 
     name lowerneck
     direction -0.0196762 0.99417 0.106017   
     length 1.82056   
     axis 0 0 0   XYZ
    dof rx ry rz
    limits (-20.0 45.0)
           (-30.0 30.0)
           (-30.0 30.0)
  end
  begin
     id 15 
     name upperneck
     direction 0.00517787 0.9802 -0.197944   
     length 1.83835   
     axis 0 0 0   XYZ
    dof rx ry rz
    limits (-20.0 45.0)
           (-30.0 30.0)
           (-30.0 30.0)
  end
  begin
     id 16
     name head
     direction 0.00211419 0.996945 -0.078081  
     length 1.85629  
     axis 0 0 0   XYZ
    dof rx ry rz
    limits (-20.0 45.0)
           (-30.0 30.0)
           (-30.0 30.0)
  end
  begin
     id 17 
     name lclavicle
     direction 0.930001 0.365811 -0.0357824  
     length 3.81961  
     axis 0 0 0   XYZ
    dof ry rz
    limits (-20.0 10.0)
           (0.0 20.0)
  end
  begin
     id 18 
     name lhumerus
     direction 1 -4.48968e-011 -3.06644e-027   
     length 5.14507   
     axis 180 -30 -90   XYZ
    dof rx ry rz
    limits (-60.0 90.0)
           (-90.0 90.0)
           (-90.0 90.0)
  end
  begin
     id 19
     name lradius
     direction 1 -4.48965e-011 9.06925e-028   
     length 3.50646   
     axis 180 -30 -90   XYZ
    dof rx
    limits (-10.0 170.0)
  end
  begin
     id 20
     name lwrist
     direction 1 -4.48957e-011 1.03922e-027   
     length 1.75323   
     axis -2.56395e-016 90 90   XYZ
    dof ry
    limits (-180.0 0.0)
 end
  begin
     id 21 
     name lhand
     direction 1 -4.48967e-011 2.08017e-027   
     length 0.629969   
     axis -1.32723e-015 90 90   XYZ
    dof rx rz
    limits (-90.0 90.0)
           (-45.0 45.0)
  end
  begin
     id 22 
     name lfingers
     direction 1 -4.49089e-011 4.20095e-027   
     length 0.507897   
     axis -2.6545e-015 90 90   XYZ
    dof rx
    limits (0.0 90.0)
  end
  begin
     id 23
     name lthumb
     direction 0.707107 -6.35001e-011 0.707107   
     length 0.729241   
     axis -90 45 5.05613e-014   XYZ
    dof rx rz
    limits (-45.0 45.0)
           (-45.0 45.0)
  end
  begin
     id 24 
     name rclavicle
     direction -0.881882 0.464123 -0.0829113   
     length 3.47515  
     axis 0 0 0   XYZ 
    dof ry rz
    limits (-10.0 20.0)
           (-20.0 0.0)
  end
  begin
     id 25 
     name rhumerus
     direction -1 -4.48961e-011 -1.55672e-027  
     length 5.232   
     axis 180 30 90   XYZ
    dof rx ry rz
    limits (-90.0 60.0)
           (-90.0 90.0)
           (-90.0 90.0)
  end
  begin
     id 26 
     name rradius
     direction -1 -4.48963e-011 6.18178e-029   
     length 3.65641   
     axis 180 30 90   XYZ
    dof rx
    limits (-10.0 170.0)
  end
  begin
     id 27 
     name rwrist
     direction -1 -4.48982e-011 1.04136e-027   
     length 1.8282   
     axis -2.56395e-016 -90 -90   XYZ
    dof ry
    limits (-180.0 0.0)
  end
  begin
     id 28
     name rhand
     direction -1 -4.48929e-011 2.07378e-027   
     length 0.656807   
     axis -1.32723e-015 -90 -90   XYZ
    dof rx rz
    limits (-90.0 90.0)
           (-45.0 45.0)
  end
  begin
     id 29
     name rfingers
     direction -1 -4.489e-011 4.13816e-027   
     length 0.529535   
     axis -2.6545e-015 -90 -90   XYZ
    dof rx
    limits (0.0 90.0)
  end
  begin
     id 30
     name rthumb
     direction -0.707107 -6.34843e-011 0.707107   
     length 0.760309   
     axis -90 -45 -5.05613e-014   XYZ
    dof rx rz
    limits (-45.0 45.0)
           (-45.0 45.0)
  end
:hierarchy
  begin
    root lhipjoint rhipjoint lowerback
    lhipjoint lfemur
    lfemur ltibia
    ltibia lfoot
    lfoot ltoes
    rhipjoint rfemur
    rfemur rtibia
    rtibia rfoot
    rfoot rtoes
    lowerback upperback
    upperback thorax
    thorax lowerneck lclavicle rclavicle
    lowerneck upperneck
    upperneck head
    lclavicle lhumerus
    lhumerus lradius
    lradius lwrist
    lwrist lhand lthumb
    lhand lfingers
    rclavicle rhumerus
    rhumerus rradius
    rradius rwrist
    rwrist rhand rthumb
    rhand rfingers
  end

#!OML:ASF H:\ManfredETheater\Project 1\Capture day 1\Session 1\subject.ASF
:FULLY-SPECIFIED
:DEGREES
1
root 1.48057 16.0712 -3.82925 -6.21071 4.1996 -0.169236
lowerback 4.36422 -0.693576 -2.86121
upperback 0.23462 -1.02853 1.65044
thorax -2.12517 -0.479094 3.37013
lowerneck -19.1932 -1.85351 -2.58415
upperneck 23.2377 -1.94714 0.542577
head 10.6866 -1.05456 0.340555
rclavicle -2.80783e-015 2.34566e-014
rhumerus 26.0256 3.82882 -43.2802
rradius 69.3904
rwrist 9.37807
rhand 6.46758 -21.6239
rfingers 7.12502
rthumb 31.7688 -48.8759
lclavicle -2.80783e-015 2.34566e-014
lhumerus 25.4787 -1.64393 60.3107
lradius 74.7733
lwrist -23.3838
lhand 14.4685 16.1424
lfingers 7.12502
lthumb 39.3511 41.5609
rfemur -15.364 -15.9813 7.84092
rtibia 63.1076
rfoot -33.1338 1.03101
rtoes -12.4268
lfemur -17.9411 5.50781 -10.6421
ltibia 63.8914
lfoot -34.5036 -3.81743
ltoes -12.4417
2
root 1.47961 16.0712 -3.82875 -6.18892 4.23935 -0.132513
lowerback 4.34093 -0.701366 -2.89887
upperback 0.228897 -1.0406 1.63479
thorax -2.11668 -0.484908 3.37552
lowerneck -19.1592 -1.85796 -2.60809
upperneck 23.2157 -1.95977 0.590694
head 10.673 -1.05648 0.360289
rclavicle 4.82053e-015 7.55382e-015
rhumerus 26.0012 3.82142 -43.277
rradius 69.3983
rwrist 9.37667
rhand 6.44319 -21.6387
rfingers 7.12502
rthumb 31.7455 -48.8954
lclavicle 4.82053e-015 7.55382e-015
lhumerus 25.4791 -1.66674 60.3032
lradius 74.7605
lwrist -23.417
lhand 14.4457 16.1249
lfingers 7.12502
lthumb 39.3297 41.5496
rfemur -15.3755 -16.0239 7.79543
rtibia 63.1193
rfoot -33.1432 1.04775
rtoes -12.4366
lfemur -17.9704 5.48132 -10.6869
ltibia 63.8843
lfoot -34.4916 -3.84815
ltoes -12.3754
3
root 1.47872 16.0716 -3.82789 -6.19263 4.22716 -0.15712
lowerback 4.34092 -0.696711 -2.87589
upperback 0.238938 -1.03301 1.6442
thorax -2.10716 -0.481626 3.37173
lowerneck -19.2011 -1.86874 -2.5761
upperneck 23.2326 -1.97113 0.543445
head 10.6865 -1.06465 0.335923
rclavicle -1.04859e-014 -1.35174e-014
rhumerus 26.006 3.81456 -43.2564
rradius 69.3877
rwrist 9.38544
rhand 6.41735 -21.6002
rfingers 7.12502
rthumb 31.7209 -48.8617
lclavicle -1.04859e-014 -1.35174e-014
lhumerus 25.4811 -1.6698 60.3046
lradius 74.7773
lwrist -23.3963
lhand 14.4364 16.128
lfingers 7.12502
lthumb 39.3208 41.5554
rfemur -15.3737 -16.0121 7.83019
rtibia 63.1183
rfoot -33.1466 1.04639
rtoes -12.4246
lfemur -17.9568 5.50085 -10.6505
ltibia 63.8835
lfoot -34.5002 -3.83433
ltoes -12.4688
4
root 1.47722 16.0711 -3.82763 -6.18711 4.22634 -0.157945
lowerback 4.34919 -0.69184 -2.87264
upperback 0.23482 -1.0266 1.64237
thorax -2.11664 -0.47822 3.36783
lowerneck -19.2196 -1.87689 -2.58458
upperneck 23.2546 -1.98105 0.549175
head 10.6985 -1.06924 0.337726
rclavicle -1.23246e-014 2.5842e-014
rhumerus 25.9911 3.80035 -43.2629
rradius 69.3822
rwrist 9.41873
rhand 6.41848 -21.5965
rfingers 7.12502
rthumb 31.722 -48.8578
lclavicle -1.23246e-014 2.5842e-014
lhumerus 25.4892 -1.68462 60.3104
lradius 74.7703
lwrist -23.4247
lhand 14.4117 16.121
lfingers 7.12502
lthumb 39.2976 41.5551
rfemur -15.3845 -16.0033 7.84239
rtibia 63.1242
rfoot -33.1482 1.01538
rtoes -12.4737
lfemur -17.961 5.50852 -10.6413
ltibia 63.884
lfoot -34.501 -3.84023
ltoes -12.4761
5
root 1.4763 16.0718 -3.82802 -6.17377 4.24448 -0.192002
lowerback 4.32566 -0.696884 -2.84074
upperback 0.253351 -1.03089 1.65418
thorax -2.08435 -0.481495 3.36162
lowerneck -19.2313 -1.88711 -2.571
upperneck 23.2228 -1.99244 0.524135
head 10.6888 -1.07621 0.324759
rclavicle 9.79014e-015 9.54166e-015
rhumerus 26.0091 3.77291 -43.2387
rradius 69.3775
rwrist 9.40758
rhand 6.40134 -21.5964
rfingers 7.12502
rthumb 31.7057 -48.861
lclavicle 9.79014e-015 9.54166e-015
lhumerus 25.5231 -1.67926 60.3086
lradius 74.7695
lwrist -23.4172
lhand 14.3898 16.1197
lfingers 7.12502
lthumb 39.277 41.5598
rfemur -15.3947 -16.0163 7.89151
rtibia 63.1198
rfoot -33.1447 1.00617
rtoes -12.4332
lfemur -17.9911 5.48907 -10.6041
ltibia 63.8865
lfoot -34.4955 -3.85553
ltoes -12.4587
6
root 1.47566 16.0722 -3.82725 -6.16582 4.2487 -0.141168
lowerback 4.33566 -0.695079 -2.88979
upperback 0.242549 -1.03145 1.64097
thorax -2.10044 -0.48091 3.376
lowerneck -19.2391 -1.89432 -2.60612
upperneck 23.2428 -1.9978 0.547861
head 10.6984 -1.07889 0.338231
rclavicle 4.64659e-015 -2.38542e-015
rhumerus 25.9866 3.79192 -43.2156
rradius 69.3891
rwrist 9.39019
rhand 6.39368 -21.6048
rfingers 7.12502
rthumb 31.6984 -48.8708
lclavicle 4.64659e-015 -2.38542e-015
lhumerus 25.5119 -1.6848 60.3133
lradius 74.7671
lwrist -23.4311
lhand 14.4286 16.1172
lfingers 7.12502
lthumb 39.3135 41.5467
rfemur -15.3957 -16.0259 7.83149
rtibia 63.1218
rfoot -33.1484 1.01368
rtoes -12.4806
lfemur -17.9883 5.48723 -10.6618
ltibia 63.881
lfoot -34.4808 -3.86884
ltoes -12.3613
7
root 1.47475 16.072 -3.82739 -6.16575 4.24335 -0.171807
lowerback 4.34895 -0.688984 -2.85575
upperback 0.246399 -1.0217 1.65199
thorax -2.10508 -0.476278 3.36783
lowerneck -19.2769 -1.90597 -2.60818
upperneck 23.2538 -2.00916 0.535672
head 10.7098 -1.0857 0.332171
rclavicle 2.6339e-015 7.95139e-016
rhumerus 25.9883 3.77854 -43.197
rradius 69.3795
rwrist 9.36806
rhand 6.41059 -21.5814
rfingers 7.12502
rthumb 31.7145 -48.8442
lclavicle 2.6339e-015 7.95139e-016
lhumerus 25.5218 -1.69514 60.3195
lradius 74.7646
lwrist -23.4344
lhand 14.405 16.141
lfingers 7.12502
lthumb 39.2913 41.5769
rfemur -15.3991 -16.0214 7.87314
rtibia 63.1178
rfoot -33.1495 1.01528
rtoes -12.4508
lfemur -17.9937 5.49439 -10.6213
ltibia 63.8827
lfoot -34.4861 -3.85675
ltoes -12.4681
8
root 1.47353 16.0724 -3.82728 -6.1663 4.2465 -0.182971
lowerback 4.36571 -0.689571 -2.84735
upperback 0.250713 -1.02233 1.65746
thorax -2.11003 -0.476615 3.36904
lowerneck -19.304 -1.89986 -2.62835
upperneck 23.2644 -2.00039 0.561749
head 10.7193 -1.08017 0.34597
rclavicle 2.36057e-015 6.75868e-015
rhumerus 26.0139 3.76103 -43.1994
rradius 69.3687
rwrist 9.36153
rhand 6.44122 -21.5989
rfingers 7.12502
rthumb 31.7437 -48.856
lclavicle 2.36057e-015 6.75868e-015
lhumerus 25.5409 -1.68799 60.3234
lradius 74.755
lwrist -23.4223
lhand 14.396 16.1177
lfingers 7.12502
lthumb 39.2828 41.5562
rfemur -15.3963 -16.0207 7.89273
rtibia 63.1156
rfoot -33.1478 1.0086
rtoes -12.454
lfemur -17.9873 5.48477 -10.604
ltibia 63.8762
lfoot -34.4869 -3.86371
ltoes -12.4015
9
root 1.47293 16.0729 -3.82718 -6.16146 4.25216 -0.164101
lowerback 4.36172 -0.688216 -2.86493
upperback 0.263224 -1.02137 1.65245
thorax -2.09477 -0.476465 3.37349
lowerneck -19.3179 -1.89619 -2.61755
upperneck 23.2488 -1.9958 0.553371
head 10.7159 -1.07804 0.341767
rclavicle 7.95139e-015 -2.62396e-014
rhumerus 26.0195 3.73912 -43.1923
rradius 69.3674
rwrist 9.34414
rhand 6.43127 -21.619
rfingers 7.12502
rthumb 31.7342 -48.8779
lclavicle 7.95139e-015 -2.62396e-014
lhumerus 25.5616 -1.68087 60.3268
lradius 74.7543
lwrist -23.4212
lhand 14.388 16.1273
lfingers 7.12502
lthumb 39.2753 41.5679
rfemur -15.3971 -16.0255 7.8723
rtibia 63.1148
rfoot -33.153 1.00902
rtoes -12.4496
lfemur -17.9924 5.47595 -10.6271
ltibia 63.8723
lfoot -34.4781 -3.8582
ltoes -12.4053
10
root 1.47244 16.0734 -3.82735 -6.15288 4.24145 -0.151382
lowerback 4.39276 -0.68548 -2.87257
upperback 0.246902 -1.01889 1.65227
thorax -2.12906 -0.47426 3.37826
lowerneck -19.3357 -1.89092 -2.61335
upperneck 23.2732 -1.98532 0.538685
head 10.7278 -1.07475 0.337135
rclavicle -1.07841e-014 -3.97569e-016
rhumerus 26.0127 3.75223 -43.1923
rradius 69.3734
rwrist 9.33633
rhand 6.46576 -21.6209
rfingers 7.12502
rthumb 31.767 -48.8733
lclavicle -1.07841e-014 -3.97569e-016
lhumerus 25.523 -1.68154 60.3138
lradius 74.7708
lwrist -23.4097
lhand 14.3805 16.1345
lfingers 7.12502
lthumb 39.2682 41.5772
rfemur -15.4126 -16.0209 7.86535
rtibia 63.1163
rfoot -33.1446 1.00625
rtoes -12.4583
lfemur -17.9936 5.47628 -10.643
ltibia 63.8643
lfoot -34.4823 -3.83235
ltoes -12.3965
11
root 1.47155 16.0736 -3.82715 -6.14603 4.23144 -0.173962
lowerback 4.38169 -0.681479 -2.84973
upperback 0.250439 -1.01195 1.66064
thorax -2.11999 -0.471203 3.37337
lowerneck -19.3089 -1.88328 -2.63657
upperneck 23.2446 -1.976 0.568995
head 10.7126 -1.06875 0.353583
rclavicle 5.71506e-015 7.55382e-015
rhumerus 26.0033 3.73399 -43.1934
rradius 69.3738
rwrist 9.36017
rhand 6.4601 -21.5909
rfingers 7.12502
rthumb 31.7616 -48.8444
lclavicle 5.71506e-015 7.55382e-015
lhumerus 25.5403 -1.67866 60.3201
lradius 74.7604
lwrist -23.4188
lhand 14.4117 16.1163
lfingers 7.12502
lthumb 39.2976 41.5504
rfemur -15.4248 -16.0021 7.90169
rtibia 63.1187
rfoot -33.1524 1.00303
rtoes -12.4516
lfemur -18.0003 5.48007 -10.6132
ltibia 63.8616
lfoot -34.4839 -3.81672
ltoes -12.4978
12
root 1.47083 16.0737 -3.82708 -6.14364 4.22496 -0.15058
lowerback 4.39365 -0.677434 -2.86688
upperback 0.263413 -1.00793 1.64816
thorax -2.11359 -0.469393 3.36995
lowerneck -19.3584 -1.88321 -2.63832
upperneck 23.2517 -1.98166 0.597984
head 10.7251 -1.0677 0.363057
rclavicle 1.96548e-014 1.70955e-014
rhumerus 26.015 3.70177 -43.2113
rradius 69.3793
rwrist 9.36631
rhand 6.44647 -21.5966
rfingers 7.12502
rthumb 31.7487 -48.8527
lclavicle 1.96548e-014 1.70955e-014
lhumerus 25.5625 -1.66583 60.3084
lradius 74.7679
lwrist -23.4067
lhand 14.3955 16.128
lfingers 7.12502
lthumb 39.2823 41.5666
rfemur -15.434 -15.9973 7.88086
rtibia 63.1244
rfoot -33.1487 0.997457
rtoes -12.503
lfemur -17.9971 5.47952 -10.6375
ltibia 63.856
lfoot -34.4729 -3.82905
ltoes -12.4335
